<?xml version="1.0" encoding="UTF-8" standalone="no"?>
<svg
   xmlns:dc="http://purl.org/dc/elements/1.1/"
   xmlns:cc="http://creativecommons.org/ns#"
   xmlns:rdf="http://www.w3.org/1999/02/22-rdf-syntax-ns#"
   xmlns:svg="http://www.w3.org/2000/svg"
   xmlns="http://www.w3.org/2000/svg"
   xmlns:sodipodi="http://sodipodi.sourceforge.net/DTD/sodipodi-0.dtd"
   xmlns:inkscape="http://www.inkscape.org/namespaces/inkscape"
   viewBox="0 0 166.25 223.75"
   height="223.75"
   width="166.25"
   xml:space="preserve"
   version="1.1"
   id="svg2"
   inkscape:version="0.91 r13725"
   sodipodi:docname="metabolic_map_cycle.svg"><sodipodi:namedview
     pagecolor="#ffffff"
     bordercolor="#666666"
     borderopacity="1"
     objecttolerance="10"
     gridtolerance="10"
     guidetolerance="10"
     inkscape:pageopacity="0"
     inkscape:pageshadow="2"
     inkscape:window-width="1375"
     inkscape:window-height="959"
     id="namedview88"
     showgrid="false"
     inkscape:zoom="4.3760571"
     inkscape:cx="68.717493"
     inkscape:cy="144.78443"
     inkscape:window-x="2275"
     inkscape:window-y="15"
     inkscape:window-maximized="0"
     inkscape:current-layer="svg2" /><metadata
     id="metadata8"><rdf:RDF><cc:Work
         rdf:about=""><dc:format>image/svg+xml</dc:format><dc:type
           rdf:resource="http://purl.org/dc/dcmitype/StillImage" /><dc:title /></cc:Work></rdf:RDF></metadata><defs
     id="defs6"><clipPath
       id="clipPath16"
       clipPathUnits="userSpaceOnUse"><path
         id="path18"
         d="M 0,0 113,0 113,159 0,159 0,0 Z" /></clipPath></defs><g
     id="g14"
     transform="matrix(1.25,0,0,-1.25,12.5,211.25)" /><g
     clip-path="url(#clipPath16)"
     id="g22"
     transform="matrix(1.25,0,0,-1.25,12.5,211.25)"><g
       id="g24"><g
         transform="matrix(0,-1,-1,0,0,159)"
         id="g26"><path
           inkscape:connector-curvature="0"
           d="m 148.473,-56.441 c 0,-31.063 -32.203,-56.247 -71.926,-56.247 -39.723,0 -71.922,25.184 -71.922,56.247 0,31.066 32.199,56.246 71.922,56.246 39.723,0 71.926,-25.18 71.926,-56.246 z"
           style="fill:none;stroke:#000000;stroke-width:0.387593;stroke-linecap:butt;stroke-linejoin:bevel;stroke-miterlimit:4;stroke-dasharray:none;stroke-opacity:1"
           id="path28" /></g><path
         inkscape:connector-curvature="0"
         d="m 70.82,123.477 c -2.23,0 -4.039,1.808 -4.039,4.039 0,2.23 1.809,4.035 4.039,4.035 2.231,0 4.039,-1.805 4.039,-4.035 0,-2.231 -1.808,-4.039 -4.039,-4.039 z"
         style="fill:#008000;fill-opacity:1;fill-rule:nonzero;stroke:none"
         id="path30" /><path
         inkscape:connector-curvature="0"
         d="m 34.324,123.641 c -2.23,0 -4.039,1.808 -4.039,4.039 0,2.23 1.809,4.039 4.039,4.039 2.231,0 4.039,-1.809 4.039,-4.039 0,-2.231 -1.808,-4.039 -4.039,-4.039 z"
         style="fill:#008000;fill-opacity:1;fill-rule:nonzero;stroke:none"
         id="path32" /><path
         inkscape:connector-curvature="0"
         d="m 57.777,97.129 c 2.231,0 4.039,1.809 4.039,4.039 0,2.23 -1.808,4.035 -4.039,4.035 -2.23,0 -4.039,-1.805 -4.039,-4.035 0,-2.23 1.809,-4.039 4.039,-4.039 z"
         style="fill:#6699ff;fill-opacity:1;fill-rule:nonzero;stroke:none"
         id="path34" /><path
         inkscape:connector-curvature="0"
         d="m 40.562,35.59 c -2.23,0 -4.039,1.805 -4.039,4.035 0,2.23 1.809,4.039 4.039,4.039 2.231,0 4.04,-1.809 4.04,-4.039 0,-2.23 -1.809,-4.035 -4.04,-4.035 z"
         style="fill:#008000;fill-opacity:1;fill-rule:nonzero;stroke:none"
         id="path36" /><path
         inkscape:connector-curvature="0"
         d="m 85.441,33.344 c -2.23,0 -4.039,1.808 -4.039,4.039 0,2.23 1.809,4.039 4.039,4.039 2.231,0 4.039,-1.809 4.039,-4.039 0,-2.231 -1.808,-4.039 -4.039,-4.039 z"
         style="fill:#008000;fill-opacity:1;fill-rule:nonzero;stroke:none"
         id="path38" /><path
         inkscape:connector-curvature="0"
         d="m 74.727,56.797 c -2.231,0 -4.039,1.808 -4.039,4.039 0,2.23 1.808,4.039 4.039,4.039 2.23,0 4.039,-1.809 4.039,-4.039 0,-2.231 -1.809,-4.039 -4.039,-4.039 z"
         style="fill:#6699ff;fill-opacity:1;fill-rule:nonzero;stroke:none"
         id="path40" /><path
         inkscape:connector-curvature="0"
         d="m 62.367,29.09 c 2.231,0 4.039,1.808 4.039,4.039 0,2.23 -1.808,4.039 -4.039,4.039 -2.23,0 -4.039,-1.809 -4.039,-4.039 0,-2.231 1.809,-4.039 4.039,-4.039 z"
         style="fill:#008000;fill-opacity:1;fill-rule:nonzero;stroke:none"
         id="path42" /><g
         transform="matrix(0,-1,1,0,0,159)"
         id="g44"><path
           inkscape:connector-curvature="0"
           d="M 72.641,80.832 90.375,77.039"
           style="fill:none;stroke:#000000;stroke-width:0.75;stroke-linecap:butt;stroke-linejoin:miter;stroke-miterlimit:4;stroke-dasharray:none;stroke-opacity:1"
           id="path46" /></g><g
         transform="matrix(0.213929,1,-1,0.213929,0,159)"
         id="g48"><path
           inkscape:connector-curvature="0"
           d="m -66.825,-90.382 -4.809,-1.767 4.808,-1.768 c -0.767,1.043 -0.764,2.473 10e-4,3.535 z"
           style="fill:#000000;fill-opacity:1;fill-rule:evenodd;stroke:#000000;stroke-width:0.27502701;stroke-linecap:butt;stroke-linejoin:round;stroke-miterlimit:4;stroke-dasharray:none;stroke-opacity:1"
           id="path50" /></g><g
         transform="matrix(1,0,0,-1,0,159)"
         id="g52"><path
           inkscape:connector-curvature="0"
           d="m 40.555,127.18 0,27.183"
           style="fill:none;stroke:#000000;stroke-width:0.75;stroke-linecap:butt;stroke-linejoin:miter;stroke-miterlimit:4;stroke-dasharray:none;stroke-opacity:1"
           id="path54" /></g><g
         transform="matrix(0,1,1,0,0,159)"
         id="g56"><path
           inkscape:connector-curvature="0"
           d="m -150.441,42.371 -4.914,-1.809 4.914,-1.808 c -0.786,1.066 -0.782,2.527 0,3.617 z"
           style="fill:#000000;fill-opacity:1;fill-rule:evenodd;stroke:#000000;stroke-width:0.28125;stroke-linecap:butt;stroke-linejoin:round;stroke-miterlimit:4;stroke-dasharray:none;stroke-opacity:1"
           id="path58" /></g><g
         transform="matrix(1,0,0,-1,0,159)"
         id="g60"><path
           inkscape:connector-curvature="0"
           d="m 62.359,132.301 0,25.929"
           style="fill:none;stroke:#000000;stroke-width:0.75;stroke-linecap:butt;stroke-linejoin:miter;stroke-miterlimit:4;stroke-dasharray:none;stroke-opacity:1"
           id="path62" /></g><g
         transform="matrix(0,1,1,0,0,159)"
         id="g64"><path
           inkscape:connector-curvature="0"
           d="m -154.305,64.172 -4.918,-1.805 4.918,-1.808 c -0.785,1.066 -0.781,2.527 0,3.613 z"
           style="fill:#000000;fill-opacity:1;fill-rule:evenodd;stroke:#000000;stroke-width:0.28125;stroke-linecap:butt;stroke-linejoin:round;stroke-miterlimit:4;stroke-dasharray:none;stroke-opacity:1"
           id="path66" /></g><g
         transform="matrix(1,0,0,-1,0,159)"
         id="g68"><path
           inkscape:connector-curvature="0"
           d="m 85.434,131.434 0,20.937"
           style="fill:none;stroke:#000000;stroke-width:0.75;stroke-linecap:butt;stroke-linejoin:miter;stroke-miterlimit:4;stroke-dasharray:none;stroke-opacity:1"
           id="path70" /></g><g
         transform="matrix(0,1,1,0,0,159)"
         id="g72"><path
           inkscape:connector-curvature="0"
           d="m -148.445,87.25 -4.918,-1.809 4.918,-1.808 c -0.785,1.066 -0.782,2.527 0,3.617 z"
           style="fill:#000000;fill-opacity:1;fill-rule:evenodd;stroke:#000000;stroke-width:0.28125;stroke-linecap:butt;stroke-linejoin:round;stroke-miterlimit:4;stroke-dasharray:none;stroke-opacity:1"
           id="path74" /></g><g
         transform="matrix(1,0,0,-1,0,159)"
         id="g76"><path
           inkscape:connector-curvature="0"
           d="m 71.535,0 0,20.934"
           style="fill:none;stroke:#000000;stroke-width:0.75;stroke-linecap:butt;stroke-linejoin:miter;stroke-miterlimit:4;stroke-dasharray:none;stroke-opacity:1"
           id="path78" /></g><g
         transform="matrix(0,1,1,0,0,159)"
         id="g80"><path
           inkscape:connector-curvature="0"
           d="m -17.012,73.352 -4.918,-1.809 4.918,-1.809 c -0.785,1.067 -0.781,2.528 0,3.618 z"
           style="fill:#000000;fill-opacity:1;fill-rule:evenodd;stroke:#000000;stroke-width:0.28125;stroke-linecap:butt;stroke-linejoin:round;stroke-miterlimit:4;stroke-dasharray:none;stroke-opacity:1"
           id="path82" /></g><g
         transform="matrix(1,0,0,-1,0,159)"
         id="g84"><path
           inkscape:connector-curvature="0"
           d="m 34.316,0 0,20.934"
           style="fill:none;stroke:#000000;stroke-width:0.75;stroke-linecap:butt;stroke-linejoin:miter;stroke-miterlimit:4;stroke-dasharray:none;stroke-opacity:1"
           id="path86" /></g><g
         transform="matrix(0,1,1,0,0,159)"
         id="g88"><path
           inkscape:connector-curvature="0"
           d="m -17.012,36.133 -4.918,-1.809 4.918,-1.808 c -0.785,1.07 -0.781,2.527 0,3.617 z"
           style="fill:#000000;fill-opacity:1;fill-rule:evenodd;stroke:#000000;stroke-width:0.28125;stroke-linecap:butt;stroke-linejoin:round;stroke-miterlimit:4;stroke-dasharray:none;stroke-opacity:1"
           id="path90" /></g><g
         transform="matrix(1,0,0,-1,0,159)"
         id="g92"><path
           inkscape:connector-curvature="0"
           d="m 76.711,37.352 c 4.113,5.199 6.355,11.632 6.363,18.261"
           style="fill:none;stroke:#000000;stroke-width:0.75;stroke-linecap:butt;stroke-linejoin:bevel;stroke-miterlimit:4;stroke-dasharray:none;stroke-opacity:1"
           id="path94" /></g><g
         transform="matrix(-0.00129808,1,1,0.00129808,0,159)"
         id="g96"><path
           inkscape:connector-curvature="0"
           d="m -51.798,84.819 -4.915,-1.807 4.916,-1.81 c -0.786,1.07 -0.78,2.531 -0.001,3.617 z"
           style="fill:#000000;fill-opacity:1;fill-rule:evenodd;stroke:#000000;stroke-width:0.28125;stroke-linecap:butt;stroke-linejoin:round;stroke-miterlimit:4;stroke-dasharray:none;stroke-opacity:1"
           id="path98" /></g><path
         inkscape:connector-curvature="0"
         d="m 81.918,91.16 c -2.23,0 -4.039,1.805 -4.039,4.035 0,2.231 1.809,4.039 4.039,4.039 2.23,0 4.039,-1.808 4.039,-4.039 0,-2.23 -1.809,-4.035 -4.039,-4.035 z"
         style="fill:#6699ff;fill-opacity:1;fill-rule:nonzero;stroke:none"
         id="path100" /><g
         transform="matrix(1,0,0,-1,0,159)"
         id="g102"><path
           inkscape:connector-curvature="0"
           d="M 78.281,71.766 C 71.773,81.734 59.914,86.809 48.211,84.637"
           style="fill:none;stroke:#000000;stroke-width:0.75;stroke-linecap:butt;stroke-linejoin:bevel;stroke-miterlimit:4;stroke-dasharray:none;stroke-opacity:1"
           id="path104" /></g><g
         transform="matrix(1,-0.185723,-0.185723,-1,0,159)"
         id="g106"><path
           inkscape:connector-curvature="0"
           d="m 65.657,74.943 -4.834,-1.778 4.834,-1.777 c -0.774,1.05 -0.769,2.487 0,3.555 z"
           style="fill:#000000;fill-opacity:1;fill-rule:evenodd;stroke:#000000;stroke-width:0.276521;stroke-linecap:butt;stroke-linejoin:round;stroke-miterlimit:4;stroke-dasharray:none;stroke-opacity:1"
           id="path108" /></g><path
         inkscape:connector-curvature="0"
         d="m 40.562,73.141 c -2.23,0 -4.039,1.808 -4.039,4.039 0,2.23 1.809,4.039 4.039,4.039 2.231,0 4.04,-1.809 4.04,-4.039 0,-2.231 -1.809,-4.039 -4.04,-4.039 z"
         style="fill:#6699ff;fill-opacity:1;fill-rule:nonzero;stroke:none"
         id="path110" /><g
         transform="matrix(1,0,0,-1,0,159)"
         id="g112"><path
           inkscape:connector-curvature="0"
           d="M 34.109,77.773 C 22.477,67.531 20.766,50.027 30.191,37.723"
           style="fill:none;stroke:#000000;stroke-width:0.75;stroke-linecap:butt;stroke-linejoin:bevel;stroke-miterlimit:4;stroke-dasharray:none;stroke-opacity:1"
           id="path114" /></g><g
         transform="matrix(-0.765983,-1,-1,0.765983,0,159)"
         id="g116"><path
           inkscape:connector-curvature="0"
           d="m 12.315,-35.796 -3.904,-1.436 3.904,-1.435 c -0.623,0.848 -0.62,2.006 0,2.871 z"
           style="fill:#000000;fill-opacity:1;fill-rule:evenodd;stroke:#000000;stroke-width:0.22327501;stroke-linecap:butt;stroke-linejoin:round;stroke-miterlimit:4;stroke-dasharray:none;stroke-opacity:1"
           id="path118" /></g><g
         transform="matrix(1,0,0,-1,0,159)"
         id="g120"><path
           inkscape:connector-curvature="0"
           d="M 41.426,28.797 C 48.145,25.754 55.758,25.34 62.77,27.633"
           style="fill:none;stroke:#000000;stroke-width:0.75;stroke-linecap:butt;stroke-linejoin:bevel;stroke-miterlimit:4;stroke-dasharray:none;stroke-opacity:1"
           id="path122" /></g><g
         transform="matrix(-1,0.32743,0.32743,1,0,159)"
         id="g124"><path
           inkscape:connector-curvature="0"
           d="m -61.135,-4.67 -4.671,-1.717 4.671,-1.721 c -0.746,1.014 -0.741,2.403 0,3.438 z"
           style="fill:#000000;fill-opacity:1;fill-rule:evenodd;stroke:#000000;stroke-width:0.26728699;stroke-linecap:butt;stroke-linejoin:round;stroke-miterlimit:4;stroke-dasharray:none;stroke-opacity:1"
           id="path126" /></g><g
         transform="matrix(1,0,0,-1,0,159)"
         id="g128"><path
           inkscape:connector-curvature="0"
           d="m 39.328,36.844 c 6.949,10.133 3.188,38.215 3.188,38.215"
           style="fill:none;stroke:#000000;stroke-width:0.75;stroke-linecap:butt;stroke-linejoin:miter;stroke-miterlimit:4;stroke-dasharray:none;stroke-opacity:1"
           id="path130" /></g><g
         transform="matrix(0.134021,1,1,-0.134021,0,159)"
         id="g132"><path
           inkscape:connector-curvature="0"
           d="m -64.251,53.447 -4.873,-1.792 4.873,-1.794 c -0.776,1.057 -0.774,2.506 0,3.586 z"
           style="fill:#000000;fill-opacity:1;fill-rule:evenodd;stroke:#000000;stroke-width:0.27875799;stroke-linecap:butt;stroke-linejoin:round;stroke-miterlimit:4;stroke-dasharray:none;stroke-opacity:1"
           id="path134" /></g><g
         transform="matrix(1,0,0,-1,0,159)"
         id="g136"><path
           inkscape:connector-curvature="0"
           d="M 39.328,36.844 C 46.277,46.977 52.07,52.766 52.07,52.766"
           style="fill:none;stroke:#000000;stroke-width:0.75;stroke-linecap:butt;stroke-linejoin:miter;stroke-miterlimit:4;stroke-dasharray:none;stroke-opacity:1"
           id="path138" /></g><g
         transform="matrix(-0.999998,1,1,0.999998,0,159)"
         id="g140"><path
           inkscape:connector-curvature="0"
           d="m -49.643,0.936 -3.478,-1.28 3.478,-1.279 c -0.556,0.756 -0.552,1.787 0,2.559 z"
           style="fill:#000000;fill-opacity:1;fill-rule:evenodd;stroke:#000000;stroke-width:0.198874;stroke-linecap:butt;stroke-linejoin:round;stroke-miterlimit:4;stroke-dasharray:none;stroke-opacity:1"
           id="path142" /></g><g
         transform="matrix(1,0,0,-1,0,159)"
         id="g144"><path
           inkscape:connector-curvature="0"
           d="m 65.098,58.848 9.265,3.472"
           style="fill:none;stroke:#000000;stroke-width:0.75;stroke-linecap:butt;stroke-linejoin:miter;stroke-miterlimit:4;stroke-dasharray:none;stroke-opacity:1"
           id="path146" /></g><g
         transform="matrix(-1,0.375001,0.375001,1,0,159)"
         id="g148"><path
           inkscape:connector-curvature="0"
           d="m -82.011,-28.488 -4.605,-1.695 4.604,-1.691 c -0.735,0.998 -0.729,2.367 0.001,3.386 z"
           style="fill:#000000;fill-opacity:1;fill-rule:evenodd;stroke:#000000;stroke-width:0.26334199;stroke-linecap:butt;stroke-linejoin:round;stroke-miterlimit:4;stroke-dasharray:none;stroke-opacity:1"
           id="path150" /></g><g
         transform="matrix(1,0,0,-1,0,159)"
         id="g152"><path
           inkscape:connector-curvature="0"
           d="m 74.074,105.461 c -1.449,9.266 -8.109,14.766 -8.109,14.766"
           style="fill:none;stroke:#000000;stroke-width:0.75;stroke-linecap:butt;stroke-linejoin:miter;stroke-miterlimit:4;stroke-dasharray:none;stroke-opacity:1"
           id="path154" /></g><g
         transform="matrix(1,0.826087,0.826087,-1,0,159)"
         id="g156"><path
           inkscape:connector-curvature="0"
           d="m -16.799,105.252 -3.79,-1.393 3.79,-1.397 c -0.606,0.824 -0.604,1.951 0,2.79 z"
           style="fill:#000000;fill-opacity:1;fill-rule:evenodd;stroke:#000000;stroke-width:0.216833;stroke-linecap:butt;stroke-linejoin:round;stroke-miterlimit:4;stroke-dasharray:none;stroke-opacity:1"
           id="path158" /></g><g
         transform="matrix(1,0,0,-1,0,159)"
         id="g160"><path
           inkscape:connector-curvature="0"
           d="m 74.074,105.461 c -1.449,9.266 5.211,12.449 5.211,12.449"
           style="fill:none;stroke:#000000;stroke-width:0.75;stroke-linecap:butt;stroke-linejoin:miter;stroke-miterlimit:4;stroke-dasharray:none;stroke-opacity:1"
           id="path162" /></g><g
         transform="matrix(-1,0.478261,0.478261,1,0,159)"
         id="g164"><path
           inkscape:connector-curvature="0"
           d="m -106.88,-63.465 -4.436,-1.629 4.435,-1.632 c -0.708,0.963 -0.706,2.282 0.001,3.261 z"
           style="fill:#000000;fill-opacity:1;fill-rule:evenodd;stroke:#000000;stroke-width:0.25372499;stroke-linecap:butt;stroke-linejoin:round;stroke-miterlimit:4;stroke-dasharray:none;stroke-opacity:1"
           id="path166" /></g><g
         transform="matrix(1,0,0,-1,0,159)"
         id="g168"><path
           inkscape:connector-curvature="0"
           d="m 40.555,89.832 0,20.523"
           style="fill:none;stroke:#000000;stroke-width:0.75;stroke-linecap:butt;stroke-linejoin:miter;stroke-miterlimit:4;stroke-dasharray:none;stroke-opacity:1"
           id="path170" /></g><g
         transform="matrix(0,1,1,0,0,159)"
         id="g172"><path
           inkscape:connector-curvature="0"
           d="m -106.43,42.371 -4.918,-1.809 4.918,-1.808 c -0.789,1.066 -0.781,2.527 0,3.617 z"
           style="fill:#000000;fill-opacity:1;fill-rule:evenodd;stroke:#000000;stroke-width:0.28125;stroke-linecap:butt;stroke-linejoin:round;stroke-miterlimit:4;stroke-dasharray:none;stroke-opacity:1"
           id="path174" /></g></g></g><text
     xml:space="preserve"
     style="font-style:normal;font-weight:normal;font-size:12.81147194px;line-height:125%;font-family:sans-serif;letter-spacing:0px;word-spacing:0px;fill:#000000;fill-opacity:1;stroke:none;stroke-width:1px;stroke-linecap:butt;stroke-linejoin:miter;stroke-opacity:1"
     x="37.768204"
     y="22.369425"
     id="text4216"
     sodipodi:linespacing="125%"><tspan
       sodipodi:role="line"
       id="tspan4218"
       x="37.768204"
       y="22.369425">v<tspan
   style="font-size:8.32745743px;baseline-shift:sub"
   id="tspan4220">1</tspan></tspan></text>
<text
     sodipodi:linespacing="125%"
     id="text4222"
     y="20.820803"
     x="107.06905"
     style="font-style:normal;font-weight:normal;font-size:12.81147194px;line-height:125%;font-family:sans-serif;letter-spacing:0px;word-spacing:0px;fill:#000000;fill-opacity:1;stroke:none;stroke-width:1px;stroke-linecap:butt;stroke-linejoin:miter;stroke-opacity:1"
     xml:space="preserve"><tspan
       y="20.820803"
       x="107.06905"
       id="tspan4224"
       sodipodi:role="line">v<tspan
   style="font-size:65%;baseline-shift:sub"
   id="tspan4228">2</tspan></tspan></text>
<text
     xml:space="preserve"
     style="font-style:normal;font-weight:normal;font-size:12.81147194px;line-height:125%;font-family:sans-serif;letter-spacing:0px;word-spacing:0px;fill:#000000;fill-opacity:1;stroke:none;stroke-width:1px;stroke-linecap:butt;stroke-linejoin:miter;stroke-opacity:1"
     x="70.67643"
     y="56.05196"
     id="text4230"
     sodipodi:linespacing="125%"><tspan
       sodipodi:role="line"
       id="tspan4232"
       x="70.67643"
       y="56.05196">v<tspan
   style="font-size:65%;baseline-shift:sub"
   id="tspan4244">4</tspan></tspan></text>
<text
     sodipodi:linespacing="125%"
     id="text4236"
     y="72.312492"
     x="28.089317"
     style="font-style:normal;font-weight:normal;font-size:12.81147194px;line-height:125%;font-family:sans-serif;letter-spacing:0px;word-spacing:0px;fill:#000000;fill-opacity:1;stroke:none;stroke-width:1px;stroke-linecap:butt;stroke-linejoin:miter;stroke-opacity:1"
     xml:space="preserve"><tspan
       y="72.312492"
       x="28.089317"
       id="tspan4238"
       sodipodi:role="line">v<tspan
   style="font-size:65%;baseline-shift:sub"
   id="tspan4242">3</tspan></tspan></text>
<text
     xml:space="preserve"
     style="font-style:normal;font-weight:normal;font-size:7.28208494px;line-height:125%;font-family:sans-serif;letter-spacing:0px;word-spacing:0px;fill:#ffffff;fill-opacity:1;stroke:none;stroke-width:1px;stroke-linecap:butt;stroke-linejoin:miter;stroke-opacity:1;"
     x="52.98064"
     y="54.276306"
     id="text4246"
     sodipodi:linespacing="125%"><tspan
       sodipodi:role="line"
       id="tspan4248"
       x="52.98064"
       y="54.276306">1</tspan></text>
<text
     sodipodi:linespacing="125%"
     id="text4226"
     y="54.437893"
     x="98.87088"
     style="font-style:normal;font-weight:normal;font-size:7.28208494px;line-height:125%;font-family:sans-serif;letter-spacing:0px;word-spacing:0px;fill:#ffffff;fill-opacity:1;stroke:none;stroke-width:1px;stroke-linecap:butt;stroke-linejoin:miter;stroke-opacity:1"
     xml:space="preserve"><tspan
       y="54.437893"
       x="98.87088"
       id="tspan4229"
       sodipodi:role="line">2</tspan></text>
<text
     xml:space="preserve"
     style="font-style:normal;font-weight:normal;font-size:7.28208494px;line-height:125%;font-family:sans-serif;letter-spacing:0px;word-spacing:0px;fill:#ffffff;fill-opacity:1;stroke:none;stroke-width:1px;stroke-linecap:butt;stroke-linejoin:miter;stroke-opacity:1"
     x="82.712349"
     y="87.401306"
     id="text4231"
     sodipodi:linespacing="125%"><tspan
       sodipodi:role="line"
       id="tspan4233"
       x="82.712349"
       y="87.401306">3</tspan></text>
<text
     sodipodi:linespacing="125%"
     id="text4235"
     y="117.61777"
     x="60.73674"
     style="font-style:normal;font-weight:normal;font-size:7.28208494px;line-height:125%;font-family:sans-serif;letter-spacing:0px;word-spacing:0px;fill:#ffffff;fill-opacity:1;stroke:none;stroke-width:1px;stroke-linecap:butt;stroke-linejoin:miter;stroke-opacity:1"
     xml:space="preserve"><tspan
       y="117.61777"
       x="60.73674"
       id="tspan4237"
       sodipodi:role="line">4</tspan></text>
<text
     xml:space="preserve"
     style="font-style:normal;font-weight:normal;font-size:12.81147194px;line-height:125%;font-family:sans-serif;letter-spacing:0px;word-spacing:0px;fill:#000000;fill-opacity:1;stroke:none;stroke-width:1px;stroke-linecap:butt;stroke-linejoin:miter;stroke-opacity:1"
     x="51.855003"
     y="86.251984"
     id="text4239"
     sodipodi:linespacing="125%"><tspan
       sodipodi:role="line"
       id="tspan4241"
       x="51.855003"
       y="86.251984">v<tspan
   style="font-size:65%;baseline-shift:sub"
   id="tspan4245">5</tspan></tspan></text>
<text
     sodipodi:linespacing="125%"
     id="text4247"
     y="69.534416"
     x="117.52225"
     style="font-style:normal;font-weight:normal;font-size:12.81147194px;line-height:125%;font-family:sans-serif;letter-spacing:0px;word-spacing:0px;fill:#000000;fill-opacity:1;stroke:none;stroke-width:1px;stroke-linecap:butt;stroke-linejoin:miter;stroke-opacity:1"
     xml:space="preserve"><tspan
       y="69.534416"
       x="117.52225"
       id="tspan4249"
       sodipodi:role="line">v<tspan
   style="font-size:65%;baseline-shift:sub"
   id="tspan4253">6</tspan></tspan></text>
<text
     sodipodi:linespacing="125%"
     id="text4238"
     y="94.713821"
     x="112.87649"
     style="font-style:normal;font-weight:normal;font-size:7.28208494px;line-height:125%;font-family:sans-serif;letter-spacing:0px;word-spacing:0px;fill:#ffffff;fill-opacity:1;stroke:none;stroke-width:1px;stroke-linecap:butt;stroke-linejoin:miter;stroke-opacity:1"
     xml:space="preserve"><tspan
       y="94.713821"
       x="112.87649"
       id="tspan4240"
       sodipodi:role="line">5</tspan></text>
</svg>